<?xml version="1.0" encoding="iso-8859-1"?>
<!-- Generator: Adobe Illustrator 19.0.0, SVG Export Plug-In . SVG Version: 6.00 Build 0)  -->
<svg xmlns="http://www.w3.org/2000/svg" xmlns:xlink="http://www.w3.org/1999/xlink" version="1.1" id="Layer_1" x="0px" y="0px" viewBox="0 0 505.023 505.023" style="enable-background:new 0 0 505.023 505.023;" xml:space="preserve" width="512" height="512">
<g>
	<g>
		<path style="fill:#737B87;" d="M444.452,259.831L90.784,12.626C71.258-1.023,44.677,14.323,46.734,38.058l37.253,429.888    c2.845,32.827,47.237,40.842,61.381,11.081l74.114-155.945c5.757-12.113,18.398-19.412,31.767-18.341l172.11,13.788    C456.203,321.16,471.458,278.709,444.452,259.831z"/>
		<path style="fill:#37414F;" d="M232.515,308.973c-5.561,3.204-10.162,8.044-13.041,14.113l-74.108,155.936    c-14.141,29.765-58.541,21.748-61.378-11.079L46.73,38.058c-1.03-11.869,5.109-21.635,13.93-26.73L232.515,308.973z"/>
	</g>
	<g>
		<path d="M168.637,430.058c-3.741-1.778-8.214-0.186-9.993,3.555l-20.051,42.19c-6.012,12.654-18.206,15.325-26.824,13.771    c-8.615-1.556-19.103-8.323-20.308-22.278L54.202,37.409c-0.708-8.163,3.108-15.486,10.212-19.589    c7.095-4.103,15.343-3.746,22.066,0.953l33.924,23.711c3.396,2.374,8.072,1.544,10.444-1.851    c2.373-3.395,1.544-8.071-1.851-10.444L95.074,6.479C83.621-1.527,68.995-2.157,56.909,4.833    c-12.095,6.986-18.858,19.965-17.651,33.872l37.258,429.884c1.592,18.427,14.384,32.458,32.587,35.746    c2.562,0.462,5.096,0.688,7.585,0.688c15.196,0,28.631-8.425,35.453-22.782l20.05-42.19    C173.969,436.31,172.378,431.836,168.637,430.058z"/>
		<path d="M448.749,253.684L157.437,50.068c-3.396-2.374-8.071-1.545-10.444,1.851c-2.373,3.395-1.544,8.071,1.851,10.444    l291.312,203.616c11.485,8.029,12.102,20.499,9.139,28.737c-2.961,8.237-11.38,17.459-25.342,16.336l-172.108-13.789    c-8.097-0.648-16.081,1.156-23.073,5.211c-7.04,4.057-12.597,10.072-16.07,17.393l-37.826,79.591    c-1.778,3.741-0.187,8.215,3.555,9.993c1.04,0.494,2.135,0.728,3.214,0.728c2.805,0,5.495-1.581,6.779-4.283l37.828-79.596    c2.162-4.558,5.623-8.303,10.027-10.841c4.358-2.528,9.327-3.652,14.366-3.245l172.108,13.789    c18.444,1.48,34.4-8.808,40.657-26.213C469.668,282.383,463.914,264.285,448.749,253.684z"/>
		<path d="M106.893,91.393c-3.587,2.071-4.816,6.658-2.745,10.245l101.514,175.826c1.389,2.406,3.91,3.751,6.502,3.751    c1.272,0,2.562-0.324,3.743-1.006c3.587-2.071,4.816-6.658,2.745-10.245L117.138,94.138    C115.067,90.551,110.481,89.322,106.893,91.393z"/>
	</g>
</g>















</svg>
